<svg xmlns="http://www.w3.org/2000/svg" width="580" height="307" viewBox="0 0 580 307" fill="none">
<path d="M293.644 188.884C289.531 192.997 286.497 198.418 285.014 204.284C283.396 210.122 283.288 216.352 284.434 222.178C284.569 222.866 284.798 223.526 284.96 224.214C285.149 224.888 285.284 225.562 285.567 226.25C286.066 227.612 286.538 228.974 287.185 230.282C288.345 232.952 289.869 235.46 291.514 237.887C294.912 242.688 299.065 247.07 303.812 250.833C308.531 254.622 313.723 257.912 319.211 260.69C321.935 262.119 324.767 263.346 327.639 264.506C330.471 265.76 333.437 266.677 336.35 267.743C342.27 269.576 348.298 271.127 354.433 272.139C360.569 273.082 366.758 273.811 373.001 273.918C379.231 274.053 385.475 273.891 391.691 273.204L394.024 272.975L396.343 272.651C397.894 272.422 399.445 272.233 400.982 271.99C404.057 271.41 407.145 270.911 410.192 270.17C411.433 269.887 412.673 269.576 413.9 269.212L417.555 268.053L417.326 268.093C424.621 266.097 431.808 263.643 438.82 260.744C445.819 257.804 452.628 254.433 459.236 250.684C472.464 243.214 484.722 234.017 495.752 223.594C502.117 217.539 508.05 211.039 513.458 204.122L521.306 193.469L528.507 182.358C537.69 167.268 545.147 151.127 551.093 134.42C562.973 100.964 568.88 65.4861 571.226 29.9001C571.482 27.1223 571.536 23.8454 571.752 20.5012C571.927 17.157 572.197 13.759 572.386 10.7115C572.831 4.6164 573.64 -0.0494256 575.163 0.125875C578.251 0.476476 580.396 13.3948 579.168 33.1633L578.548 42.1171L577.672 51.071L577.227 55.548L576.647 60.0113L575.474 68.9381C573.599 80.7911 571.536 92.6306 568.583 104.281C567.275 110.147 565.535 115.892 563.917 121.677L563.31 123.848L559.805 134.541C559.346 135.97 558.874 137.4 558.321 138.789C556.177 144.398 554.208 150.062 551.714 155.523C550.5 158.26 549.408 161.065 548.113 163.762L544.176 171.84C536.314 187.522 526.659 202.274 515.426 215.867C504.018 229.338 490.655 241.07 476.038 250.927C461.42 260.757 445.495 268.686 428.734 274.229C411.986 279.771 394.348 282.872 376.588 282.913C360.663 282.926 344.63 280.459 329.567 274.984C322.056 272.273 314.667 269.01 307.79 264.749C300.886 260.542 294.426 255.458 288.898 249.322C286.16 246.234 283.666 242.904 281.508 239.317C279.418 235.689 277.678 231.86 276.397 227.828C273.889 219.562 273.876 210.797 276.006 202.585C277.018 198.458 278.703 194.494 280.888 190.785C281.926 188.898 283.275 187.199 284.583 185.473L286.808 183.072C287.522 182.25 288.439 181.602 289.248 180.861C295.977 175.184 305.228 172.163 314.181 173.512C318.362 174.105 322.38 175.534 325.953 177.571C329.527 179.607 332.709 182.196 335.487 185.095C341.029 190.92 345.021 197.959 347.421 205.524C349.794 213.089 350.549 221.301 348.958 229.338C348.756 230.336 348.54 231.347 348.244 232.332L347.826 233.815L347.313 235.204C346.599 237.038 346.019 238.939 345.102 240.679C344.252 242.459 343.43 244.252 342.378 245.911L340.881 248.446C340.342 249.268 339.762 250.051 339.209 250.86C334.692 257.251 329.149 262.767 323.149 267.5C317.135 272.246 310.662 276.238 303.987 279.717C297.312 283.182 290.408 286.135 283.423 288.684L272.891 292.217L267.619 293.97C265.866 294.563 264.045 294.954 262.265 295.453C237.656 302.371 212.143 305.904 186.67 306.282C161.171 306.659 135.685 303.922 110.873 298.326C109.403 298.002 107.934 297.678 106.45 297.355C104.967 297.058 103.484 296.667 102.014 296.249C99.0606 295.44 96.094 294.644 93.1409 293.876C87.1807 292.5 81.4497 290.68 75.867 289.439L76.0423 289.534C69.6371 286.85 62.6655 284.113 55.6265 281.551C52.0801 280.351 48.7358 278.665 45.4726 277.087C42.2228 275.469 39.1213 273.743 36.3165 271.842C32.2441 269.522 28.1448 267.028 24.0994 264.924C22.9397 264.317 21.834 263.738 20.7821 263.185C19.7438 262.605 18.7999 261.984 17.8965 261.418C16.0895 260.285 14.4848 259.247 13.0959 258.303C10.3181 256.429 8.36279 254.959 7.23008 253.853C4.95117 251.642 5.93557 250.9 9.81915 251.305C11.5182 251.48 10.6013 249.7 15.0782 251.925C15.0916 251.939 15.3613 252.168 15.3613 252.168L15.2669 252.046C18.5302 253.395 21.7665 255.107 25.1242 256.847C28.5493 258.478 32.0014 260.299 35.467 262.2C37.2065 263.131 38.919 264.169 40.6855 265.073C42.479 265.949 44.2724 266.839 46.0524 267.716C49.6258 269.455 53.1588 271.289 56.6918 272.84C91.5766 287.632 129.131 296.343 167.037 297.571C176.503 298.123 185.983 297.705 195.449 297.422L209.608 296.276C211.981 296.141 214.314 295.75 216.66 295.426L223.699 294.442C226.032 294.078 228.405 293.849 230.725 293.39L237.683 291.974C242.322 291.004 246.987 290.221 251.532 288.873C256.089 287.619 260.701 286.513 265.232 285.138L278.69 280.634C289.612 276.818 300.144 272.017 309.758 265.949C319.373 259.921 327.922 252.275 333.869 243.012C334.557 241.825 335.298 240.665 335.959 239.465L337.753 235.784C338.737 233.235 339.802 230.687 340.328 228.178C341.515 223.081 341.353 217.633 340.315 212.388C339.222 207.129 337.159 202.045 334.3 197.514C331.415 193.01 327.747 189.005 323.445 186.201C318.739 183.099 313.291 181.616 307.992 182.209L306.01 182.506L304.041 182.978L302.14 183.652L301.182 183.976C300.872 184.111 300.575 184.286 300.279 184.421L298.458 185.311L296.759 186.43L295.896 186.983L295.101 187.644L293.496 188.965C293.55 188.965 293.604 188.925 293.644 188.884Z" fill="#edf0f1"/>
<path d="M1.5394 249.525C1.20228 248.204 0.757301 246.748 0.541546 245.44L0.015625 242.109C3.89921 242.985 8.05247 244.078 11.7203 244.738C11.9495 244.779 12.1788 244.63 12.408 244.576L12.3811 244.549L15.2398 245.035C15.941 245.143 16.6557 245.224 17.3704 245.264C20.6876 245.439 23.9374 245.466 27.3221 246.235C27.848 246.343 28.738 246.303 28.9807 249.337C29.2369 252.505 28.7245 254.393 27.6862 254.339C25.205 254.191 22.7643 253.503 20.337 253.975C18.5436 254.312 16.7501 254.285 14.9701 254.124C14.5251 254.083 14.0801 254.029 13.6351 253.975L12.5698 253.827C12.2732 253.786 12.0979 253.76 11.9631 253.773C11.7338 253.8 11.5045 253.76 11.2618 253.706C11.2483 253.921 11.3427 254.299 11.4776 254.582C11.545 254.704 11.6394 254.825 11.7338 254.906L11.7742 254.933L11.8552 255.175L12.017 255.688L12.3406 256.726C12.7721 258.102 13.1632 259.49 13.3924 260.893C13.7835 263.334 13.4194 265.896 13.5407 268.377C13.5677 268.957 13.5138 269.604 14.7543 269.941L14.7948 269.928C13.5407 270.818 16.2242 271.155 14.3094 272.139C14.2959 272.368 14.1341 272.638 14.2824 272.84C14.9566 273.757 13.9183 274.202 10.4258 274.445C9.65716 274.499 8.68627 274.755 8.11992 274.593L8.17387 274.566L8.11992 274.58C5.67919 274.297 6.65009 273.272 6.47479 272.53C5.61177 268.862 4.95103 265.141 4.20938 261.446L3.58905 258.034C3.48117 257.454 3.35981 256.942 3.21148 256.308C2.99573 255.283 2.73952 254.245 2.45635 253.166C2.1462 252.02 1.44499 250.604 1.5259 249.498L1.5394 249.525Z" fill="#edf0f1"/>
</svg>
