<svg xmlns="http://www.w3.org/2000/svg" width="317" height="180" viewBox="0 0 317 180" fill="none">
<path d="M53.8475 134.971C56.3679 135.556 59.7102 136.277 63.774 136.98C67.8377 137.702 72.6229 138.423 77.9651 139.263C88.5491 140.989 101.224 142.542 114.831 143.528C121.625 144.003 128.648 144.322 135.725 144.505C142.802 144.66 149.934 144.633 156.948 144.469C163.97 144.286 170.874 143.911 177.513 143.418C184.143 142.907 190.499 142.231 196.425 141.501C210.105 139.693 223.721 137.236 236.944 133.519C243.556 131.665 250.067 129.528 256.386 126.971C262.696 124.415 268.833 121.456 274.522 117.894C280.312 114.214 286.02 110.351 291.243 106.078C296.43 101.795 301.27 97.0825 304.466 91.6307C306.028 88.9002 307.133 86.0054 307.644 82.9918C308.146 80.0057 308.146 76.7365 307.489 73.9878C306.156 68.2985 301.672 63.5225 296.247 60.0432C290.777 56.5365 284.495 54.0159 278.038 52.1165L268.057 49.4043C267.226 49.1851 266.395 48.9477 265.555 48.7377L263.034 48.1533L257.993 46.9844C244.542 43.9526 230.917 41.7517 217.201 40.5371C189.759 38.0806 162.025 39.9709 135.04 45.5323C130.839 46.4638 125.872 47.4684 120.886 48.8199C118.393 49.4774 115.845 50.0618 113.388 50.7467C110.932 51.4407 108.53 52.1075 106.265 52.7467C105.124 53.0481 104.019 53.3494 102.959 53.6325C101.9 53.9339 100.886 54.2352 99.9276 54.5091C98.0099 55.0571 96.2839 55.5228 94.8502 55.8607C91.9645 56.5364 90.202 56.7372 90.1655 56.2076C90.129 55.6505 91.2431 54.7648 93.3891 53.5777C94.4667 52.9841 95.7999 52.3267 97.3798 51.5961C98.9687 50.8929 100.768 50.0162 102.85 49.2674C111.123 46.0803 123.196 42.2175 138.209 39.2496C156.382 35.7246 174.92 33.8799 193.467 33.8799C195.786 33.8068 198.106 33.953 200.416 33.9987L207.366 34.2087L214.297 34.7019C216.607 34.8845 218.927 34.9757 221.219 35.2862L228.123 36.0625C229.273 36.1995 230.424 36.2999 231.575 36.4734L235.008 37.0032L241.875 38.0533C244.168 38.4094 246.423 38.9116 248.697 39.3316C250.971 39.7791 253.245 40.19 255.51 40.6649L262.267 42.2358C266.788 43.2129 271.235 44.4823 275.691 45.6786C280.129 46.8109 284.686 48.2262 289.024 50.0435C293.38 51.8516 297.635 54.0433 301.553 56.8833C305.425 59.7599 308.968 63.3763 311.279 67.9057C312.301 70.2161 313.206 72.6452 313.443 75.1839C313.507 75.814 313.644 76.4533 313.644 77.0652L313.68 78.9098C313.68 79.2203 313.699 79.5217 313.69 79.8322L313.616 80.7545L313.47 82.5992C312.868 87.5305 310.932 92.2426 308.302 96.2972C305.663 100.379 302.393 103.877 298.951 107.064C293.901 111.73 288.421 115.757 282.832 119.538L278.604 122.314C277.18 123.237 275.691 124.104 274.23 124.999L269.737 127.455C268.212 128.204 266.687 128.971 265.153 129.702C252.797 135.446 239.784 139.327 226.662 142.359C220.096 143.875 213.475 145.117 206.827 146.158C200.188 147.208 193.512 148.066 186.828 148.724C180.143 149.4 173.44 149.902 166.737 150.222C160.034 150.569 153.322 150.733 146.61 150.742C133.186 150.797 119.771 150.194 106.393 149.035C99.7084 148.414 93.0329 147.683 86.3848 146.77C79.7093 145.811 73.1708 144.788 66.541 143.738C59.9203 142.66 53.2448 141.4 46.6606 139.519C40.0947 137.601 33.5927 135.053 27.6478 131.391C24.6525 129.592 21.849 127.501 19.2189 125.218C17.8765 124.104 16.6528 122.853 15.4018 121.639C14.2237 120.351 13.0092 119.082 11.9316 117.703C7.50258 112.287 4.06895 105.941 2.22428 99.0551C0.617048 92.8636 0.425276 86.2245 1.82247 79.9691C2.53477 76.8459 3.50276 73.7868 4.8269 70.9011C6.16017 68.0245 7.70348 65.2483 9.50249 62.6548C11.3198 60.0796 13.2923 57.6231 15.4748 55.3675C17.6665 53.121 19.986 51.0117 22.4791 49.1031C24.9812 47.2036 27.5747 45.4775 30.2687 43.9251C32.9626 42.3909 35.7296 40.9847 38.5514 39.7336C41.3823 38.5008 44.2498 37.3866 47.1446 36.382C50.0486 35.3958 52.9708 34.51 55.9113 33.6973C61.7923 32.1174 67.7007 30.7842 73.6274 29.6701L82.5129 27.9806C85.4808 27.4692 88.4669 27.0217 91.444 26.5377L95.9095 25.8345L100.393 25.2502C103.389 24.8758 106.366 24.4466 109.37 24.1178C157.304 18.7299 206.115 21.4239 253.181 31.8983C255.939 32.5375 258.715 33.0855 261.454 33.807L269.682 35.9071C275.18 37.2952 280.796 39.0944 286.102 41.56C291.417 44.0257 296.512 47.2035 300.923 51.2764L301.763 52.0253C302.037 52.281 302.284 52.564 302.548 52.8379L304.092 54.4817C304.631 55.0114 305.069 55.6231 305.544 56.2076L306.941 57.9794C307.79 59.2213 308.621 60.4814 309.407 61.769L310.475 63.7598C310.822 64.4264 311.206 65.0747 311.48 65.7779C312.712 68.5175 313.717 71.3484 314.438 74.2433C315.187 77.1564 315.653 80.0057 315.991 83.0375C316.502 89.229 315.37 95.2562 313.525 100.863C311.662 106.489 309.069 111.767 306.055 116.744C303.033 121.721 299.571 126.405 295.727 130.761C291.873 135.117 287.654 139.172 282.887 142.697C280.522 144.368 278.175 145.939 275.81 147.555L274.038 148.761L273.153 149.363L272.239 149.92L268.577 152.148C266.13 153.628 263.719 155.162 261.162 156.459C258.624 157.783 256.14 159.198 253.564 160.459L245.766 164.066C243.145 165.216 240.442 166.194 237.784 167.271C227.054 171.298 215.931 174.294 204.644 176.248L196.152 177.517L187.613 178.348C186.189 178.513 184.764 178.567 183.339 178.631L179.056 178.832C177.632 178.878 176.198 179.006 174.773 178.988H170.491C165.559 179.079 160.646 178.768 155.733 178.567C153.277 178.439 150.839 178.184 148.391 177.992L144.72 177.682C143.496 177.581 142.282 177.398 141.067 177.271L133.762 176.394C131.333 176.065 128.922 175.663 126.493 175.298C121.671 174.604 116.749 173.7 111.945 172.559C102.302 170.285 92.8503 167.152 83.8005 163.043C74.7598 158.933 66.0935 153.838 58.313 147.509C50.5417 141.199 43.6562 133.601 38.6062 124.789C33.5562 116.004 30.4056 106.077 29.7299 95.9227C29.0267 85.777 30.7709 75.5676 34.305 66.1707C37.8391 56.7465 43.0809 48.0711 49.4185 40.3728C55.3725 33.1129 62.9247 25.9076 71.6549 19.9261C76.0109 16.9308 80.6499 14.2186 85.4625 11.9265C86.6588 11.3512 87.8916 10.8308 89.097 10.2829C90.3207 9.76239 91.5627 9.29655 92.7864 8.80342C95.2611 7.92674 97.7268 7.13229 100.165 6.31954C102.201 5.71683 104.43 5.16894 106.777 4.5297C107.945 4.19182 109.169 3.94511 110.411 3.69855C111.662 3.44285 112.932 3.17815 114.228 2.91332C115.516 2.62109 116.849 2.42932 118.192 2.22842C119.534 2.02751 120.895 1.82668 122.264 1.61665C123.634 1.37921 125.022 1.29701 126.42 1.14176C127.817 1.00478 129.214 0.867625 130.611 0.730645C141.816 -0.182556 153.021 0.210103 161.295 0.940663C168.436 1.58904 175.815 2.47487 182.737 3.47939C183.732 3.61637 184.709 3.74439 185.659 3.88137C186.609 4.03661 187.531 4.1827 188.426 4.31968C190.225 4.61191 191.933 4.89493 193.558 5.15976C196.782 5.76247 199.658 6.29219 202.17 6.82184C204.681 7.36063 206.845 7.85363 208.662 8.29197C210.48 8.7577 211.95 9.16873 213.091 9.52488C217.667 10.9677 216.936 11.607 211.475 11.6253C209.073 11.6618 211.575 12.8216 203.969 11.6344C203.658 11.5888 203.028 11.4881 202.736 11.4425C191.175 9.84437 179.54 8.05453 167.769 6.91303C156.007 5.75327 144.081 5.18713 132.2 6.04553C130.383 6.18251 128.566 6.40175 126.748 6.57526L124.027 6.85841L121.324 7.2693C119.525 7.56153 117.708 7.77153 115.927 8.14594L110.585 9.26002C109.69 9.42439 108.813 9.66179 107.936 9.90835L105.306 10.6115L102.676 11.3147C101.8 11.5522 100.95 11.8808 100.083 12.1548L94.9233 13.89C93.2521 14.5566 91.5535 15.1776 89.9189 15.9447C76.7232 21.7892 64.815 30.629 55.336 41.5326C45.8935 52.418 38.7888 65.5132 36.1771 79.5765C35.5287 83.0831 35.1269 86.6356 35.1086 90.188L35.0812 91.5212C35.0812 91.9687 35.1086 92.407 35.1269 92.8544C35.1726 93.7402 35.1726 94.6351 35.2456 95.5118C35.4191 97.2742 35.5652 99.0459 35.894 100.799C36.1223 102.562 36.5971 104.278 36.9624 106.014C37.4556 107.721 37.9122 109.447 38.5331 111.109C39.7203 114.461 41.1449 117.739 42.8982 120.835C44.6424 123.94 46.6058 126.935 48.7975 129.757C51.0166 132.56 53.4274 135.227 55.9935 137.729C61.1714 142.706 66.9884 147.062 73.1891 150.797C85.6086 158.267 99.4345 163.436 113.635 166.714C117.187 167.545 120.758 168.221 124.383 168.787C128.027 169.317 131.652 169.928 135.305 170.394L140.784 171.043C142.611 171.243 144.437 171.518 146.263 171.636L151.752 172.084C153.578 172.239 155.414 172.403 157.249 172.449C171.897 173.234 186.609 172.75 201.046 170.522L204.37 170.029C205.484 169.874 206.571 169.6 207.667 169.39L214.251 168.038C216.425 167.5 218.58 166.897 220.753 166.331L224.004 165.472L227.2 164.431C229.328 163.728 231.465 163.052 233.584 162.331L239.839 159.874C240.88 159.454 241.93 159.08 242.953 158.623L246.003 157.217C248.03 156.267 250.085 155.363 252.103 154.386L258.048 151.226C259.035 150.696 260.03 150.185 261.016 149.637L263.893 147.893L269.655 144.414C271.527 143.181 273.372 141.893 275.235 140.642C277.079 139.373 279.006 138.14 280.686 136.816C282.412 135.492 284.065 134.04 285.673 132.542C288.887 129.538 291.864 126.25 294.604 122.789C300.065 115.849 304.676 108.16 307.589 99.9592C309.032 95.868 310 91.6399 310.201 87.4484C310.256 86.3982 310.238 85.357 310.201 84.3251L310.073 82.7818C310.009 82.2613 309.909 81.7134 309.836 81.1837C309.653 80.1153 309.544 79.0377 309.297 77.9875L308.557 74.8461C307.398 70.7185 305.699 66.7826 303.398 63.2211C301.106 59.6596 298.229 56.4908 294.932 53.7877C291.627 51.0755 287.882 48.8839 283.956 47.0301C280.02 45.1946 275.892 43.6693 271.637 42.5187C269.317 41.8429 266.87 41.295 264.486 40.6832C262.085 40.0987 259.701 39.4595 257.29 38.9208C254.87 38.4002 252.459 37.8706 250.039 37.3501L246.414 36.5646L242.761 35.8706C240.323 35.414 237.885 34.9485 235.447 34.4919C233.008 34.0079 230.543 33.679 228.095 33.259C225.639 32.8663 223.182 32.4279 220.717 32.0626C218.242 31.7156 215.767 31.3687 213.283 31.0217L213.621 31.0674C192.873 28.3734 171.933 27.4053 151.03 27.7158C146.09 27.7066 141.14 28.0171 136.173 28.1906C133.689 28.2546 131.214 28.492 128.73 28.6472C126.246 28.8208 123.762 29.0035 121.278 29.177C111.352 30.1267 101.389 31.2134 91.4987 32.8389L84.0744 34.0353L76.6866 35.4414C71.7462 36.3455 66.8423 37.3867 62.0206 38.5738C57.1898 39.761 52.432 41.1215 47.8204 42.7836C43.1996 44.4273 38.734 46.3907 34.515 48.7285C30.2687 51.048 26.3602 53.7968 22.8443 56.9656C19.3011 60.1161 16.2419 63.7689 13.7032 67.6866C11.1462 71.6042 9.30158 75.9054 8.16921 80.3162C7.06424 84.7452 6.8816 89.3112 7.52084 93.7676C8.14182 98.2332 9.74905 102.562 11.9133 106.562C14.0959 110.571 16.8629 114.278 20.0865 117.547C23.3009 120.817 26.9264 123.684 30.7983 126.086C34.6794 128.478 38.8345 130.424 43.1631 131.958C45.8479 132.953 49.6468 133.976 53.8475 134.971Z" fill="white"/>
</svg>
